<svg id="图层_4" data-name="图层 4" xmlns="http://www.w3.org/2000/svg" viewBox="0 0 300.26 302.86"><defs><style>.cls-1{fill:#eabb68;}.cls-2{fill:#f4d589;}.cls-3{fill:#ba9950;}.cls-4{fill:#dd452c;}.cls-5{fill:#e0604f;}.cls-10,.cls-6,.cls-7,.cls-9{fill:#a83829;}.cls-7{stroke:#e88277;}.cls-10,.cls-7,.cls-9{stroke-miterlimit:10;}.cls-8{fill:#e25f52;}.cls-9{stroke:#c96257;}.cls-10{stroke:#e57b70;}.cls-11{fill:#e57b70;}</style></defs><title>1插画素材蛋糕</title><g id="图层_7" data-name="图层 7"><polygon class="cls-1" points="0 64.14 143.38 10.78 300.26 64.14 150.13 135.38 0 64.14"/><polyline class="cls-2" points="150.13 135.38 150.13 302.86 292.4 206.91 300.26 64.14"/><g id="图层_8" data-name="图层 8"><polygon class="cls-3" points="0 64.14 0 221.16 150.13 302.86 150.13 135.38 0 64.14"/></g><g id="图层_9" data-name="图层 9"><polygon class="cls-4" points="95.2 109.31 236.6 42.48 199.27 29.79 62.55 93.81 95.2 109.31"/><polygon class="cls-5" points="205.06 109.31 209.08 263.1 236.6 244.54 248.99 236.18 242.6 91.5 205.06 109.31"/><polyline class="cls-6" points="62.55 93.81 54.7 250.93 77.07 263.1 86.41 268.19 95.2 109.31"/><polyline class="cls-4" points="205.06 109.31 61.28 41.33 101.35 26.42 242.6 91.5"/></g></g><g id="图层_10" data-name="图层 10"><path class="cls-7" d="M924.66,1941.93l42.19-51.22s39,77.62,20.13,81.7-64.24-5.78-64.24-5.78" transform="translate(-762.73 -1889.8)"/><path class="cls-8" d="M912.3,1968.79s-92.89,2.33-82.08,12.51,17.93,11.71,22.88,8.9S912.3,1968.79,912.3,1968.79Z" transform="translate(-762.73 -1889.8)"/><path class="cls-8" d="M924.66,1965.18s54.93-10,57-5.83,2,11,2,11S983.43,1973.27,924.66,1965.18Z" transform="translate(-762.73 -1889.8)"/><path class="cls-8" d="M979.35,1918.24s-17.9,4.81-11.56,9.92,15.88,5.79,15.88,5.79h1.75Z" transform="translate(-762.73 -1889.8)"/><path class="cls-8" d="M928.86,1949.26s21.33-16.53,25.3-17.29l4-.76S944.86,1938.37,928.86,1949.26Z" transform="translate(-762.73 -1889.8)"/><path class="cls-9" d="M902.57,1947.91c-45.85-29-48.94-31.69-48.94-31.69s-56.76,83.62-10.55,75.84S914.67,1969,914.67,1969" transform="translate(-762.73 -1889.8)"/><path class="cls-10" d="M929.71,1953.94a15,15,0,0,1-30.08,0c0-1.61,2.94-6,6.48-9.66,2.88-3,6.15-5.38,8.56-5.38A15,15,0,0,1,929.71,1953.94Z" transform="translate(-762.73 -1889.8)"/><path class="cls-8" d="M914.67,1953.94s9.18,15,5.05,14.17-5.05-15.78-5.05-15.78" transform="translate(-762.73 -1889.8)"/><path class="cls-11" d="M899.63,1953.94l-20.47-11.15-10.77,9.42a2.46,2.46,0,0,0,.32,4l3.08,1.93a3.42,3.42,0,0,0,5-1.59l1.32-3.17a4.48,4.48,0,0,1,5-2.67Z" transform="translate(-762.73 -1889.8)"/></g></svg>